<mxfile host="Electron" modified="2023-06-19T17:35:50.059Z" agent="Mozilla/5.0 (X11; Linux x86_64) AppleWebKit/537.36 (KHTML, like Gecko) draw.io/21.3.7 Chrome/112.0.5615.204 Electron/24.5.0 Safari/537.36" etag="DyEHyDrtNmRA3oUFssUm" version="21.3.7" type="device">
  <diagram name="Page-1" id="vuqkkd7o_7ojX0cqJZrE">
    <mxGraphModel dx="733" dy="438" grid="1" gridSize="10" guides="1" tooltips="1" connect="1" arrows="1" fold="1" page="1" pageScale="1" pageWidth="850" pageHeight="1100" math="0" shadow="0">
      <root>
        <mxCell id="0" />
        <mxCell id="1" parent="0" />
        <mxCell id="BboUFWCV0P_TKe9favFF-90" value="" style="rounded=0;whiteSpace=wrap;html=1;dashed=1;fontColor=#999999;strokeColor=none;fillColor=#F9C74F;fillOpacity=100;" vertex="1" parent="1">
          <mxGeometry x="345" y="365" width="238" height="40" as="geometry" />
        </mxCell>
        <mxCell id="BboUFWCV0P_TKe9favFF-89" value="" style="rounded=0;whiteSpace=wrap;html=1;dashed=1;fontColor=#999999;strokeColor=none;fillColor=#F9C74F;fillOpacity=100;" vertex="1" parent="1">
          <mxGeometry x="306" y="315" width="238" height="40" as="geometry" />
        </mxCell>
        <mxCell id="BboUFWCV0P_TKe9favFF-88" value="" style="rounded=0;whiteSpace=wrap;html=1;dashed=1;fontColor=#999999;strokeColor=none;fillColor=#F9C74F;fillOpacity=100;" vertex="1" parent="1">
          <mxGeometry x="266" y="265" width="238" height="40" as="geometry" />
        </mxCell>
        <mxCell id="BboUFWCV0P_TKe9favFF-87" value="" style="rounded=0;whiteSpace=wrap;html=1;dashed=1;fontColor=#999999;strokeColor=none;fillColor=#F9C74F;fillOpacity=100;" vertex="1" parent="1">
          <mxGeometry x="226" y="215" width="238" height="40" as="geometry" />
        </mxCell>
        <mxCell id="BboUFWCV0P_TKe9favFF-86" value="" style="rounded=0;whiteSpace=wrap;html=1;dashed=1;fontColor=#999999;strokeColor=none;fillColor=#F9C74F;fillOpacity=100;" vertex="1" parent="1">
          <mxGeometry x="187" y="165" width="238" height="40" as="geometry" />
        </mxCell>
        <mxCell id="BboUFWCV0P_TKe9favFF-85" value="" style="rounded=0;whiteSpace=wrap;html=1;dashed=1;fontColor=#999999;strokeColor=none;fillColor=#F9C74F;fillOpacity=100;" vertex="1" parent="1">
          <mxGeometry x="146" y="115" width="238" height="40" as="geometry" />
        </mxCell>
        <mxCell id="BboUFWCV0P_TKe9favFF-1" value="1" style="rounded=1;whiteSpace=wrap;html=1;fontColor=#999999;" vertex="1" parent="1">
          <mxGeometry x="150" y="120" width="30" height="30" as="geometry" />
        </mxCell>
        <mxCell id="BboUFWCV0P_TKe9favFF-2" value="2" style="rounded=1;whiteSpace=wrap;html=1;fontColor=#999999;" vertex="1" parent="1">
          <mxGeometry x="190" y="120" width="30" height="30" as="geometry" />
        </mxCell>
        <mxCell id="BboUFWCV0P_TKe9favFF-3" value="3" style="rounded=1;whiteSpace=wrap;html=1;fontColor=#999999;" vertex="1" parent="1">
          <mxGeometry x="230" y="120" width="30" height="30" as="geometry" />
        </mxCell>
        <mxCell id="BboUFWCV0P_TKe9favFF-4" value="4" style="rounded=1;whiteSpace=wrap;html=1;fontColor=#999999;" vertex="1" parent="1">
          <mxGeometry x="270" y="120" width="30" height="30" as="geometry" />
        </mxCell>
        <mxCell id="BboUFWCV0P_TKe9favFF-5" value="5" style="rounded=1;whiteSpace=wrap;html=1;fontColor=#999999;" vertex="1" parent="1">
          <mxGeometry x="310" y="120" width="30" height="30" as="geometry" />
        </mxCell>
        <mxCell id="BboUFWCV0P_TKe9favFF-6" value="6" style="rounded=1;whiteSpace=wrap;html=1;fontColor=#999999;" vertex="1" parent="1">
          <mxGeometry x="350" y="120" width="30" height="30" as="geometry" />
        </mxCell>
        <mxCell id="BboUFWCV0P_TKe9favFF-7" value="7" style="rounded=1;whiteSpace=wrap;html=1;fontColor=#999999;" vertex="1" parent="1">
          <mxGeometry x="390" y="120" width="30" height="30" as="geometry" />
        </mxCell>
        <mxCell id="BboUFWCV0P_TKe9favFF-8" value="8" style="rounded=1;whiteSpace=wrap;html=1;fontColor=#999999;" vertex="1" parent="1">
          <mxGeometry x="430" y="120" width="30" height="30" as="geometry" />
        </mxCell>
        <mxCell id="BboUFWCV0P_TKe9favFF-9" value="9" style="rounded=1;whiteSpace=wrap;html=1;fontColor=#999999;" vertex="1" parent="1">
          <mxGeometry x="470" y="120" width="30" height="30" as="geometry" />
        </mxCell>
        <mxCell id="BboUFWCV0P_TKe9favFF-10" value="10" style="rounded=1;whiteSpace=wrap;html=1;fontColor=#999999;" vertex="1" parent="1">
          <mxGeometry x="510" y="120" width="30" height="30" as="geometry" />
        </mxCell>
        <mxCell id="BboUFWCV0P_TKe9favFF-11" value="11" style="rounded=1;whiteSpace=wrap;html=1;fontColor=#999999;" vertex="1" parent="1">
          <mxGeometry x="550" y="120" width="30" height="30" as="geometry" />
        </mxCell>
        <mxCell id="BboUFWCV0P_TKe9favFF-13" value="1" style="rounded=1;whiteSpace=wrap;html=1;fontColor=#999999;" vertex="1" parent="1">
          <mxGeometry x="150" y="170" width="30" height="30" as="geometry" />
        </mxCell>
        <mxCell id="BboUFWCV0P_TKe9favFF-14" value="2" style="rounded=1;whiteSpace=wrap;html=1;fontColor=#999999;" vertex="1" parent="1">
          <mxGeometry x="190" y="170" width="30" height="30" as="geometry" />
        </mxCell>
        <mxCell id="BboUFWCV0P_TKe9favFF-15" value="3" style="rounded=1;whiteSpace=wrap;html=1;fontColor=#999999;" vertex="1" parent="1">
          <mxGeometry x="230" y="170" width="30" height="30" as="geometry" />
        </mxCell>
        <mxCell id="BboUFWCV0P_TKe9favFF-16" value="4" style="rounded=1;whiteSpace=wrap;html=1;fontColor=#999999;" vertex="1" parent="1">
          <mxGeometry x="270" y="170" width="30" height="30" as="geometry" />
        </mxCell>
        <mxCell id="BboUFWCV0P_TKe9favFF-17" value="5" style="rounded=1;whiteSpace=wrap;html=1;fontColor=#999999;" vertex="1" parent="1">
          <mxGeometry x="310" y="170" width="30" height="30" as="geometry" />
        </mxCell>
        <mxCell id="BboUFWCV0P_TKe9favFF-18" value="6" style="rounded=1;whiteSpace=wrap;html=1;fontColor=#999999;" vertex="1" parent="1">
          <mxGeometry x="350" y="170" width="30" height="30" as="geometry" />
        </mxCell>
        <mxCell id="BboUFWCV0P_TKe9favFF-19" value="7" style="rounded=1;whiteSpace=wrap;html=1;fontColor=#999999;" vertex="1" parent="1">
          <mxGeometry x="390" y="170" width="30" height="30" as="geometry" />
        </mxCell>
        <mxCell id="BboUFWCV0P_TKe9favFF-20" value="8" style="rounded=1;whiteSpace=wrap;html=1;fontColor=#999999;" vertex="1" parent="1">
          <mxGeometry x="430" y="170" width="30" height="30" as="geometry" />
        </mxCell>
        <mxCell id="BboUFWCV0P_TKe9favFF-21" value="9" style="rounded=1;whiteSpace=wrap;html=1;fontColor=#999999;" vertex="1" parent="1">
          <mxGeometry x="470" y="170" width="30" height="30" as="geometry" />
        </mxCell>
        <mxCell id="BboUFWCV0P_TKe9favFF-22" value="10" style="rounded=1;whiteSpace=wrap;html=1;fontColor=#999999;" vertex="1" parent="1">
          <mxGeometry x="510" y="170" width="30" height="30" as="geometry" />
        </mxCell>
        <mxCell id="BboUFWCV0P_TKe9favFF-23" value="11" style="rounded=1;whiteSpace=wrap;html=1;fontColor=#999999;" vertex="1" parent="1">
          <mxGeometry x="550" y="170" width="30" height="30" as="geometry" />
        </mxCell>
        <mxCell id="BboUFWCV0P_TKe9favFF-25" value="1" style="rounded=1;whiteSpace=wrap;html=1;fontColor=#999999;" vertex="1" parent="1">
          <mxGeometry x="150" y="220" width="30" height="30" as="geometry" />
        </mxCell>
        <mxCell id="BboUFWCV0P_TKe9favFF-26" value="2" style="rounded=1;whiteSpace=wrap;html=1;fontColor=#999999;" vertex="1" parent="1">
          <mxGeometry x="190" y="220" width="30" height="30" as="geometry" />
        </mxCell>
        <mxCell id="BboUFWCV0P_TKe9favFF-27" value="3" style="rounded=1;whiteSpace=wrap;html=1;fontColor=#999999;" vertex="1" parent="1">
          <mxGeometry x="230" y="220" width="30" height="30" as="geometry" />
        </mxCell>
        <mxCell id="BboUFWCV0P_TKe9favFF-28" value="4" style="rounded=1;whiteSpace=wrap;html=1;fontColor=#999999;" vertex="1" parent="1">
          <mxGeometry x="270" y="220" width="30" height="30" as="geometry" />
        </mxCell>
        <mxCell id="BboUFWCV0P_TKe9favFF-29" value="5" style="rounded=1;whiteSpace=wrap;html=1;fontColor=#999999;" vertex="1" parent="1">
          <mxGeometry x="310" y="220" width="30" height="30" as="geometry" />
        </mxCell>
        <mxCell id="BboUFWCV0P_TKe9favFF-30" value="6" style="rounded=1;whiteSpace=wrap;html=1;fontColor=#999999;" vertex="1" parent="1">
          <mxGeometry x="350" y="220" width="30" height="30" as="geometry" />
        </mxCell>
        <mxCell id="BboUFWCV0P_TKe9favFF-31" value="7" style="rounded=1;whiteSpace=wrap;html=1;fontColor=#999999;" vertex="1" parent="1">
          <mxGeometry x="390" y="220" width="30" height="30" as="geometry" />
        </mxCell>
        <mxCell id="BboUFWCV0P_TKe9favFF-32" value="8" style="rounded=1;whiteSpace=wrap;html=1;fontColor=#999999;" vertex="1" parent="1">
          <mxGeometry x="430" y="220" width="30" height="30" as="geometry" />
        </mxCell>
        <mxCell id="BboUFWCV0P_TKe9favFF-33" value="9" style="rounded=1;whiteSpace=wrap;html=1;fontColor=#999999;" vertex="1" parent="1">
          <mxGeometry x="470" y="220" width="30" height="30" as="geometry" />
        </mxCell>
        <mxCell id="BboUFWCV0P_TKe9favFF-34" value="10" style="rounded=1;whiteSpace=wrap;html=1;fontColor=#999999;" vertex="1" parent="1">
          <mxGeometry x="510" y="220" width="30" height="30" as="geometry" />
        </mxCell>
        <mxCell id="BboUFWCV0P_TKe9favFF-35" value="11" style="rounded=1;whiteSpace=wrap;html=1;fontColor=#999999;" vertex="1" parent="1">
          <mxGeometry x="550" y="220" width="30" height="30" as="geometry" />
        </mxCell>
        <mxCell id="BboUFWCV0P_TKe9favFF-37" value="1" style="rounded=1;whiteSpace=wrap;html=1;fontColor=#999999;" vertex="1" parent="1">
          <mxGeometry x="150" y="270" width="30" height="30" as="geometry" />
        </mxCell>
        <mxCell id="BboUFWCV0P_TKe9favFF-38" value="2" style="rounded=1;whiteSpace=wrap;html=1;fontColor=#999999;" vertex="1" parent="1">
          <mxGeometry x="190" y="270" width="30" height="30" as="geometry" />
        </mxCell>
        <mxCell id="BboUFWCV0P_TKe9favFF-39" value="3" style="rounded=1;whiteSpace=wrap;html=1;fontColor=#999999;" vertex="1" parent="1">
          <mxGeometry x="230" y="270" width="30" height="30" as="geometry" />
        </mxCell>
        <mxCell id="BboUFWCV0P_TKe9favFF-40" value="4" style="rounded=1;whiteSpace=wrap;html=1;fontColor=#999999;" vertex="1" parent="1">
          <mxGeometry x="270" y="270" width="30" height="30" as="geometry" />
        </mxCell>
        <mxCell id="BboUFWCV0P_TKe9favFF-41" value="5" style="rounded=1;whiteSpace=wrap;html=1;fontColor=#999999;" vertex="1" parent="1">
          <mxGeometry x="310" y="270" width="30" height="30" as="geometry" />
        </mxCell>
        <mxCell id="BboUFWCV0P_TKe9favFF-42" value="6" style="rounded=1;whiteSpace=wrap;html=1;fontColor=#999999;" vertex="1" parent="1">
          <mxGeometry x="350" y="270" width="30" height="30" as="geometry" />
        </mxCell>
        <mxCell id="BboUFWCV0P_TKe9favFF-43" value="7" style="rounded=1;whiteSpace=wrap;html=1;fontColor=#999999;" vertex="1" parent="1">
          <mxGeometry x="390" y="270" width="30" height="30" as="geometry" />
        </mxCell>
        <mxCell id="BboUFWCV0P_TKe9favFF-44" value="8" style="rounded=1;whiteSpace=wrap;html=1;fontColor=#999999;" vertex="1" parent="1">
          <mxGeometry x="430" y="270" width="30" height="30" as="geometry" />
        </mxCell>
        <mxCell id="BboUFWCV0P_TKe9favFF-45" value="9" style="rounded=1;whiteSpace=wrap;html=1;fontColor=#999999;" vertex="1" parent="1">
          <mxGeometry x="470" y="270" width="30" height="30" as="geometry" />
        </mxCell>
        <mxCell id="BboUFWCV0P_TKe9favFF-46" value="10" style="rounded=1;whiteSpace=wrap;html=1;fontColor=#999999;" vertex="1" parent="1">
          <mxGeometry x="510" y="270" width="30" height="30" as="geometry" />
        </mxCell>
        <mxCell id="BboUFWCV0P_TKe9favFF-47" value="11" style="rounded=1;whiteSpace=wrap;html=1;fontColor=#999999;" vertex="1" parent="1">
          <mxGeometry x="550" y="270" width="30" height="30" as="geometry" />
        </mxCell>
        <mxCell id="BboUFWCV0P_TKe9favFF-49" value="1" style="rounded=1;whiteSpace=wrap;html=1;fontColor=#999999;" vertex="1" parent="1">
          <mxGeometry x="150" y="320" width="30" height="30" as="geometry" />
        </mxCell>
        <mxCell id="BboUFWCV0P_TKe9favFF-50" value="2" style="rounded=1;whiteSpace=wrap;html=1;fontColor=#999999;" vertex="1" parent="1">
          <mxGeometry x="190" y="320" width="30" height="30" as="geometry" />
        </mxCell>
        <mxCell id="BboUFWCV0P_TKe9favFF-51" value="3" style="rounded=1;whiteSpace=wrap;html=1;fontColor=#999999;" vertex="1" parent="1">
          <mxGeometry x="230" y="320" width="30" height="30" as="geometry" />
        </mxCell>
        <mxCell id="BboUFWCV0P_TKe9favFF-52" value="4" style="rounded=1;whiteSpace=wrap;html=1;fontColor=#999999;" vertex="1" parent="1">
          <mxGeometry x="270" y="320" width="30" height="30" as="geometry" />
        </mxCell>
        <mxCell id="BboUFWCV0P_TKe9favFF-53" value="5" style="rounded=1;whiteSpace=wrap;html=1;fontColor=#999999;" vertex="1" parent="1">
          <mxGeometry x="310" y="320" width="30" height="30" as="geometry" />
        </mxCell>
        <mxCell id="BboUFWCV0P_TKe9favFF-54" value="6" style="rounded=1;whiteSpace=wrap;html=1;fontColor=#999999;" vertex="1" parent="1">
          <mxGeometry x="350" y="320" width="30" height="30" as="geometry" />
        </mxCell>
        <mxCell id="BboUFWCV0P_TKe9favFF-55" value="7" style="rounded=1;whiteSpace=wrap;html=1;fontColor=#999999;" vertex="1" parent="1">
          <mxGeometry x="390" y="320" width="30" height="30" as="geometry" />
        </mxCell>
        <mxCell id="BboUFWCV0P_TKe9favFF-56" value="8" style="rounded=1;whiteSpace=wrap;html=1;fontColor=#999999;" vertex="1" parent="1">
          <mxGeometry x="430" y="320" width="30" height="30" as="geometry" />
        </mxCell>
        <mxCell id="BboUFWCV0P_TKe9favFF-57" value="9" style="rounded=1;whiteSpace=wrap;html=1;fontColor=#999999;" vertex="1" parent="1">
          <mxGeometry x="470" y="320" width="30" height="30" as="geometry" />
        </mxCell>
        <mxCell id="BboUFWCV0P_TKe9favFF-58" value="10" style="rounded=1;whiteSpace=wrap;html=1;fontColor=#999999;" vertex="1" parent="1">
          <mxGeometry x="510" y="320" width="30" height="30" as="geometry" />
        </mxCell>
        <mxCell id="BboUFWCV0P_TKe9favFF-59" value="11" style="rounded=1;whiteSpace=wrap;html=1;fontColor=#999999;" vertex="1" parent="1">
          <mxGeometry x="550" y="320" width="30" height="30" as="geometry" />
        </mxCell>
        <mxCell id="BboUFWCV0P_TKe9favFF-61" value="1" style="rounded=1;whiteSpace=wrap;html=1;fontColor=#999999;" vertex="1" parent="1">
          <mxGeometry x="150" y="370" width="30" height="30" as="geometry" />
        </mxCell>
        <mxCell id="BboUFWCV0P_TKe9favFF-62" value="2" style="rounded=1;whiteSpace=wrap;html=1;fontColor=#999999;" vertex="1" parent="1">
          <mxGeometry x="190" y="370" width="30" height="30" as="geometry" />
        </mxCell>
        <mxCell id="BboUFWCV0P_TKe9favFF-63" value="3" style="rounded=1;whiteSpace=wrap;html=1;fontColor=#999999;" vertex="1" parent="1">
          <mxGeometry x="230" y="370" width="30" height="30" as="geometry" />
        </mxCell>
        <mxCell id="BboUFWCV0P_TKe9favFF-64" value="4" style="rounded=1;whiteSpace=wrap;html=1;fontColor=#999999;" vertex="1" parent="1">
          <mxGeometry x="270" y="370" width="30" height="30" as="geometry" />
        </mxCell>
        <mxCell id="BboUFWCV0P_TKe9favFF-65" value="5" style="rounded=1;whiteSpace=wrap;html=1;fontColor=#999999;" vertex="1" parent="1">
          <mxGeometry x="310" y="370" width="30" height="30" as="geometry" />
        </mxCell>
        <mxCell id="BboUFWCV0P_TKe9favFF-66" value="6" style="rounded=1;whiteSpace=wrap;html=1;fontColor=#999999;" vertex="1" parent="1">
          <mxGeometry x="350" y="370" width="30" height="30" as="geometry" />
        </mxCell>
        <mxCell id="BboUFWCV0P_TKe9favFF-67" value="7" style="rounded=1;whiteSpace=wrap;html=1;fontColor=#999999;" vertex="1" parent="1">
          <mxGeometry x="390" y="370" width="30" height="30" as="geometry" />
        </mxCell>
        <mxCell id="BboUFWCV0P_TKe9favFF-68" value="8" style="rounded=1;whiteSpace=wrap;html=1;fontColor=#999999;" vertex="1" parent="1">
          <mxGeometry x="430" y="370" width="30" height="30" as="geometry" />
        </mxCell>
        <mxCell id="BboUFWCV0P_TKe9favFF-69" value="9" style="rounded=1;whiteSpace=wrap;html=1;fontColor=#999999;" vertex="1" parent="1">
          <mxGeometry x="470" y="370" width="30" height="30" as="geometry" />
        </mxCell>
        <mxCell id="BboUFWCV0P_TKe9favFF-70" value="10" style="rounded=1;whiteSpace=wrap;html=1;fontColor=#999999;" vertex="1" parent="1">
          <mxGeometry x="510" y="370" width="30" height="30" as="geometry" />
        </mxCell>
        <mxCell id="BboUFWCV0P_TKe9favFF-71" value="11" style="rounded=1;whiteSpace=wrap;html=1;fontColor=#999999;" vertex="1" parent="1">
          <mxGeometry x="550" y="370" width="30" height="30" as="geometry" />
        </mxCell>
        <mxCell id="BboUFWCV0P_TKe9favFF-104" value="1:" style="text;html=1;strokeColor=none;fillColor=none;align=center;verticalAlign=middle;whiteSpace=wrap;rounded=0;" vertex="1" parent="1">
          <mxGeometry x="120" y="121" width="26" height="30" as="geometry" />
        </mxCell>
        <mxCell id="BboUFWCV0P_TKe9favFF-105" value="2:" style="text;html=1;strokeColor=none;fillColor=none;align=center;verticalAlign=middle;whiteSpace=wrap;rounded=0;" vertex="1" parent="1">
          <mxGeometry x="120" y="170" width="26" height="30" as="geometry" />
        </mxCell>
        <mxCell id="BboUFWCV0P_TKe9favFF-106" value="3:" style="text;html=1;strokeColor=none;fillColor=none;align=center;verticalAlign=middle;whiteSpace=wrap;rounded=0;" vertex="1" parent="1">
          <mxGeometry x="120" y="220" width="26" height="30" as="geometry" />
        </mxCell>
        <mxCell id="BboUFWCV0P_TKe9favFF-107" value="4:" style="text;html=1;strokeColor=none;fillColor=none;align=center;verticalAlign=middle;whiteSpace=wrap;rounded=0;" vertex="1" parent="1">
          <mxGeometry x="120" y="270" width="26" height="30" as="geometry" />
        </mxCell>
        <mxCell id="BboUFWCV0P_TKe9favFF-108" value="5:" style="text;html=1;strokeColor=none;fillColor=none;align=center;verticalAlign=middle;whiteSpace=wrap;rounded=0;" vertex="1" parent="1">
          <mxGeometry x="120" y="320" width="26" height="30" as="geometry" />
        </mxCell>
        <mxCell id="BboUFWCV0P_TKe9favFF-109" value="6:" style="text;html=1;strokeColor=none;fillColor=none;align=center;verticalAlign=middle;whiteSpace=wrap;rounded=0;" vertex="1" parent="1">
          <mxGeometry x="120" y="370" width="26" height="30" as="geometry" />
        </mxCell>
        <mxCell id="BboUFWCV0P_TKe9favFF-110" value="NA" style="text;html=1;strokeColor=none;fillColor=none;align=center;verticalAlign=middle;whiteSpace=wrap;rounded=0;fontStyle=1" vertex="1" parent="1">
          <mxGeometry x="580" y="380" width="60" height="30" as="geometry" />
        </mxCell>
        <mxCell id="BboUFWCV0P_TKe9favFF-112" value="" style="endArrow=classic;html=1;rounded=0;" edge="1" parent="1">
          <mxGeometry width="50" height="50" relative="1" as="geometry">
            <mxPoint x="150" y="90" as="sourcePoint" />
            <mxPoint x="580" y="90" as="targetPoint" />
          </mxGeometry>
        </mxCell>
        <mxCell id="BboUFWCV0P_TKe9favFF-113" value="" style="endArrow=classic;html=1;rounded=0;" edge="1" parent="1">
          <mxGeometry width="50" height="50" relative="1" as="geometry">
            <mxPoint x="610" y="120" as="sourcePoint" />
            <mxPoint x="610" y="370" as="targetPoint" />
          </mxGeometry>
        </mxCell>
        <mxCell id="BboUFWCV0P_TKe9favFF-114" value="NP" style="text;html=1;strokeColor=none;fillColor=none;align=center;verticalAlign=middle;whiteSpace=wrap;rounded=0;fontStyle=1" vertex="1" parent="1">
          <mxGeometry x="105" y="75" width="60" height="30" as="geometry" />
        </mxCell>
      </root>
    </mxGraphModel>
  </diagram>
</mxfile>
